<?xml version="1.0" encoding="utf-8"?>
<!-- Generator: Adobe Illustrator 16.0.0, SVG Export Plug-In . SVG Version: 6.00 Build 0)  -->
<!DOCTYPE svg PUBLIC "-//W3C//DTD SVG 1.1//EN" "http://www.w3.org/Graphics/SVG/1.1/DTD/svg11.dtd">
<svg version="1.1" id="Layer_1" xmlns="http://www.w3.org/2000/svg" xmlns:xlink="http://www.w3.org/1999/xlink" x="0px" y="0px"
	 width="141.7px" height="56.7px" viewBox="0 0 141.7 56.7" enable-background="new 0 0 141.7 56.7" xml:space="preserve">
<linearGradient id="SVGID_1_" gradientUnits="userSpaceOnUse" x1="20.0405" y1="32.4063" x2="54.0842" y2="80.1461">
	<stop  offset="0" style="stop-color:#21BBAF"/>
	<stop  offset="1" style="stop-color:#046696"/>
</linearGradient>
<path fill="url(#SVGID_1_)" d="M10.2,32.8h4.7l-0.5,4.9c-0.5,4.3-0.7,7.4,0.8,9.1c1.1,1.2,3.2,1.7,6.8,1.7c7.9,0,8.9-2.8,9.8-11
	l2.7-25.3h-6.2l-2.8,25.7c-0.4,3.8-0.5,5-2.8,5c-0.6,0-1.2-0.1-1.7-0.6c-0.6-0.7-0.6-1.7-0.3-4l0.1-0.8l2.8-25.4h-6.5L15.6,26h-4.7
	l1.5-13.8H6L2.3,47.9h6.4L10.2,32.8z"/>
<linearGradient id="SVGID_2_" gradientUnits="userSpaceOnUse" x1="40.5864" y1="17.7549" x2="74.6316" y2="65.4967">
	<stop  offset="0" style="stop-color:#21BBAF"/>
	<stop  offset="1" style="stop-color:#046696"/>
</linearGradient>
<path fill="url(#SVGID_2_)" d="M57,11.7H46.6c-3.9,0-6.2,0.6-7.6,2.1c-2.4,2.5-2.9,7.2-3.6,14.4L35,31.7c-0.3,3.3-0.6,6.2-0.6,8.6
	c0,6,1.2,8.2,8.6,8.2c2.2,0,5.8-0.1,5.8-0.1l0.6-5.9h-5.3c-2.1,0-3.1-0.1-3.1-2.9c0-1.3,0.2-3.2,0.5-6c0.1-1,0.2-2.2,0.4-3.4
	l0.2-1.6c1-9.8,1.2-11,4.4-11l0.1,0l9.3,0c2.1,0,2.1,2,2.1,2.7c0,1-0.2,2.6-0.4,4.1l0,0.3c-0.5,5.1-0.8,7.2-3,7.2h-2l1-9.7h-6.2
	l-1.7,16.1l8.5,0l0.9,9.6h6.2L60,35.7l0.3-0.3c2.7-2.5,3.3-6.7,3.8-10.8c0.2-1.6,0.3-3.6,0.3-5.1C64.4,14.5,63.2,11.7,57,11.7z"/>
<linearGradient id="SVGID_3_" gradientUnits="userSpaceOnUse" x1="59.979" y1="0.9946" x2="94.0255" y2="48.7385">
	<stop  offset="0" style="stop-color:#21BBAF"/>
	<stop  offset="1" style="stop-color:#046696"/>
</linearGradient>
<polygon fill="url(#SVGID_3_)" points="72.4,21.4 75,21.4 74.3,28.6 77.8,28.6 79.6,12.2 76,12.2 75.3,18.9 72.7,18.9 73.4,12.2 
	69.8,12.2 68.1,28.6 71.7,28.6 "/>
<linearGradient id="SVGID_4_" gradientUnits="userSpaceOnUse" x1="68.1558" y1="-4.8354" x2="102.2015" y2="42.9073">
	<stop  offset="0" style="stop-color:#21BBAF"/>
	<stop  offset="1" style="stop-color:#046696"/>
</linearGradient>
<path fill="url(#SVGID_4_)" d="M83.5,23.9l1.2-11.7h-3.5l-1.2,11.2C80,23.9,80,24.3,80,24.7c0,0.4,0,0.7,0.1,1
	c0.1,0.7,0.3,1.2,0.6,1.7c0.3,0.5,0.8,0.8,1.4,1c0.6,0.2,1.4,0.4,2.3,0.4c0.9,0,1.7-0.1,2.4-0.3c0.7-0.2,1.2-0.6,1.6-1.1
	c0.4-0.5,0.7-1,0.9-1.7c0.2-0.6,0.4-1.4,0.5-2.3l1.2-11.2h-3.5l-1.2,11.7c0,0.3-0.1,0.5-0.1,0.7c0,0.2-0.1,0.4-0.2,0.6
	c-0.1,0.2-0.2,0.4-0.3,0.5c-0.1,0.1-0.2,0.3-0.4,0.3c-0.2,0.1-0.4,0.1-0.6,0.1c-0.3,0-0.5-0.1-0.7-0.2s-0.3-0.3-0.3-0.5
	c-0.1-0.2-0.1-0.5-0.1-0.7c0-0.1,0-0.1,0-0.1C83.5,24.4,83.5,24.2,83.5,23.9z"/>
<linearGradient id="SVGID_5_" gradientUnits="userSpaceOnUse" x1="75.6094" y1="-10.1494" x2="109.6534" y2="37.5909">
	<stop  offset="0" style="stop-color:#21BBAF"/>
	<stop  offset="1" style="stop-color:#046696"/>
</linearGradient>
<polygon fill="url(#SVGID_5_)" points="102.6,28.6 104.1,12.2 100.4,12.2 97.4,22 96.5,12.2 92.7,12.2 90.8,28.6 93.3,28.6 
	94.7,17.6 95.6,28.6 97.8,28.6 101,17.7 100.1,28.6 "/>
<linearGradient id="SVGID_6_" gradientUnits="userSpaceOnUse" x1="81.9463" y1="-14.666" x2="115.9892" y2="33.0727">
	<stop  offset="0" style="stop-color:#21BBAF"/>
	<stop  offset="1" style="stop-color:#046696"/>
</linearGradient>
<polygon fill="url(#SVGID_6_)" points="106.1,12.2 104.3,28.6 111.6,28.6 111.9,26.2 108.1,26.2 109.6,12.2 "/>
<linearGradient id="SVGID_7_" gradientUnits="userSpaceOnUse" x1="89.0508" y1="-19.7378" x2="123.0968" y2="28.0053">
	<stop  offset="0" style="stop-color:#21BBAF"/>
	<stop  offset="1" style="stop-color:#046696"/>
</linearGradient>
<polygon fill="url(#SVGID_7_)" points="123,12.2 120,12.2 119.2,20.2 116.6,12.2 114.1,12.2 112.4,28.6 115.4,28.6 116.3,20 
	118.9,28.6 121.3,28.6 "/>
<linearGradient id="SVGID_8_" gradientUnits="userSpaceOnUse" x1="98.4688" y1="-26.4468" x2="132.5113" y2="21.2915">
	<stop  offset="0" style="stop-color:#21BBAF"/>
	<stop  offset="1" style="stop-color:#046696"/>
</linearGradient>
<polygon fill="url(#SVGID_8_)" points="124.8,12.2 123.1,28.6 130.4,28.6 130.7,26.2 126.9,26.2 127.4,21.3 130.2,21.3 130.5,18.8 
	127.6,18.8 128.1,14.7 134.4,14.7 132.9,28.6 136.5,28.6 138,14.7 140.5,14.7 140.7,12.2 132.1,12.2 "/>
<linearGradient id="SVGID_9_" gradientUnits="userSpaceOnUse" x1="49.4648" y1="8.4907" x2="83.5113" y2="56.2344">
	<stop  offset="0" style="stop-color:#21BBAF"/>
	<stop  offset="1" style="stop-color:#046696"/>
</linearGradient>
<path fill="url(#SVGID_9_)" d="M76.5,33.2c-0.2-0.4-0.4-0.7-0.8-1c-0.3-0.3-0.7-0.5-1.3-0.6c-0.5-0.1-1.1-0.2-1.8-0.2
	c-0.9,0-1.7,0.1-2.4,0.4c-0.7,0.2-1.2,0.6-1.6,1.1c-0.4,0.5-0.8,1.1-1,1.7c-0.2,0.7-0.4,1.4-0.5,2.3l-0.6,5.8c0,0.4-0.1,0.9-0.1,1.3
	c0,0.2,0,0.4,0,0.6c0,0.6,0.1,1.1,0.3,1.5c0.2,0.5,0.5,0.8,0.8,1.2c0.3,0.3,0.8,0.6,1.3,0.7s1.2,0.3,1.9,0.3c0.9,0,1.7-0.1,2.3-0.4
	c0.6-0.2,1.2-0.6,1.6-1c0.4-0.5,0.7-1,0.9-1.5s0.4-1.2,0.4-2l0.1-1.4h-3.5l-0.2,1.7c0,0.3-0.1,0.5-0.1,0.6c0,0.2-0.1,0.3-0.1,0.6
	c-0.1,0.2-0.1,0.4-0.2,0.5c-0.1,0.1-0.2,0.2-0.4,0.3c-0.2,0.1-0.4,0.1-0.6,0.1c-0.5,0-0.8-0.2-1-0.5c-0.1-0.2-0.1-0.5-0.1-0.9
	c0-0.2,0-0.4,0-0.7l0.8-7.6c0-0.3,0.1-0.5,0.1-0.6c0-0.2,0.1-0.4,0.1-0.6c0.1-0.2,0.2-0.4,0.3-0.5c0.1-0.1,0.2-0.2,0.4-0.3
	c0.2-0.1,0.4-0.1,0.6-0.1c0.1,0,0.3,0,0.4,0c0.1,0,0.2,0.1,0.3,0.1c0.1,0,0.1,0.1,0.2,0.2s0.1,0.1,0.1,0.2c0,0.1,0.1,0.1,0.1,0.3
	c0,0.1,0,0.2,0,0.3c0,0.1,0,0.2,0,0.3c0,0.1,0,0.3,0,0.3c0,0.1,0,0.2,0,0.3l-0.2,1.6h3.5l0.1-1.4c0-0.3,0-0.6,0-0.9
	c0-0.2,0-0.4,0-0.6C76.8,34,76.7,33.6,76.5,33.2z"/>
<linearGradient id="SVGID_10_" gradientUnits="userSpaceOnUse" x1="56.0435" y1="3.7988" x2="90.0903" y2="51.543">
	<stop  offset="0" style="stop-color:#21BBAF"/>
	<stop  offset="1" style="stop-color:#046696"/>
</linearGradient>
<path fill="url(#SVGID_10_)" d="M87.4,32.9c-0.3-0.3-0.6-0.6-1.1-0.8c-0.4-0.2-0.9-0.3-1.5-0.4c-0.5-0.1-1.1-0.1-1.8-0.1h-4.4
	l-1.7,16.4h3.6l0.8-7.3h1l1.2,7.3h3.6L85.5,40c0.8-0.4,1.4-0.9,1.8-1.6c0.4-0.7,0.7-1.5,0.8-2.6c0-0.3,0-0.5,0-0.7
	c0-0.4,0-0.7-0.1-1C87.8,33.6,87.6,33.2,87.4,32.9z M84.7,36.2C84.6,37,84.4,37.6,84,38c-0.4,0.4-0.9,0.6-1.7,0.6h-0.9L82,34h1.1
	c0.7,0,1.2,0.2,1.4,0.6c0.2,0.3,0.3,0.6,0.3,1.1C84.7,35.8,84.7,36,84.7,36.2z"/>
<linearGradient id="SVGID_11_" gradientUnits="userSpaceOnUse" x1="65.5591" y1="-2.981" x2="99.6029" y2="44.7591">
	<stop  offset="0" style="stop-color:#21BBAF"/>
	<stop  offset="1" style="stop-color:#046696"/>
</linearGradient>
<path fill="url(#SVGID_11_)" d="M99.9,31.6l-4.1,14H92l0.5-4.9h2.9l0.3-2.5h-2.9l0.4-4.1h3.8l0.3-2.4h-7.3l-1.7,16.4h6.9h1.4h1.9
	l0.9-3.5h2.4l0.2,3.5h3.3l-1.4-16.4H99.9z M99.9,42.3l1.6-6.4l0.2,6.4H99.9z"/>
<linearGradient id="SVGID_12_" gradientUnits="userSpaceOnUse" x1="75.1406" y1="-9.8174" x2="109.1855" y2="37.9242">
	<stop  offset="0" style="stop-color:#21BBAF"/>
	<stop  offset="1" style="stop-color:#046696"/>
</linearGradient>
<polygon fill="url(#SVGID_12_)" points="114.4,31.6 105.8,31.6 105.5,34.2 108,34.2 106.6,47.9 110.2,47.9 111.6,34.2 114.1,34.2 
	"/>
<linearGradient id="SVGID_13_" gradientUnits="userSpaceOnUse" x1="78.8555" y1="-12.4653" x2="112.9" y2="35.2757">
	<stop  offset="0" style="stop-color:#21BBAF"/>
	<stop  offset="1" style="stop-color:#046696"/>
</linearGradient>
<polygon fill="url(#SVGID_13_)" points="113.5,47.9 117,47.9 118.7,31.6 115.2,31.6 "/>
<linearGradient id="SVGID_14_" gradientUnits="userSpaceOnUse" x1="84.9316" y1="-16.7939" x2="118.9743" y2="30.9445">
	<stop  offset="0" style="stop-color:#21BBAF"/>
	<stop  offset="1" style="stop-color:#046696"/>
</linearGradient>
<polygon fill="url(#SVGID_14_)" points="126.3,31.6 123.4,42.7 122.8,31.6 119.8,31.6 121,47.9 124.7,47.9 129.5,31.6 "/>
<linearGradient id="SVGID_15_" gradientUnits="userSpaceOnUse" x1="90.2266" y1="-20.5776" x2="124.2726" y2="27.1655">
	<stop  offset="0" style="stop-color:#21BBAF"/>
	<stop  offset="1" style="stop-color:#046696"/>
</linearGradient>
<polygon fill="url(#SVGID_15_)" points="128.7,47.9 136.1,47.9 136.3,45.5 132.6,45.5 133.1,40.6 135.9,40.6 136.2,38.1 133.3,38.1 
	133.8,34 137.5,34 137.8,31.6 130.5,31.6 "/>
</svg>
